<?xml version="1.0" standalone="no"?>
<!DOCTYPE svg PUBLIC "-//W3C//DTD SVG 20010904//EN"
 "http://www.w3.org/TR/2001/REC-SVG-20010904/DTD/svg10.dtd">
<svg version="1.0" xmlns="http://www.w3.org/2000/svg"
 width="1024.000000pt" height="1024.000000pt" viewBox="0 0 1024.000000 1024.000000"
 preserveAspectRatio="xMidYMid meet">

<g transform="translate(0.000000,1024.000000) scale(0.100000,-0.100000)"
fill="#000000" stroke="none">
<path d="M0 5120 l0 -5120 5120 0 5120 0 0 5120 0 5120 -5120 0 -5120 0 0
-5120z m5538 3954 c25 -17 30 -60 10 -86 -32 -42 -118 -11 -118 42 0 27 35 60
63 60 12 0 33 -7 45 -16z m2525 -121 c-7 -2 -21 -2 -30 0 -10 3 -4 5 12 5 17
0 24 -2 18 -5z m-120 -10 c-7 -2 -19 -2 -25 0 -7 3 -2 5 12 5 14 0 19 -2 13
-5z m178 -10 c13 -16 12 -17 -3 -4 -10 7 -18 15 -18 17 0 8 8 3 21 -13z m-238
0 c-7 -2 -21 -2 -30 0 -10 3 -4 5 12 5 17 0 24 -2 18 -5z m-158 -23 c-16 -4
-39 -8 -50 -8 -16 0 -15 2 5 8 14 4 36 8 50 8 22 0 22 -1 -5 -8z m412 -32 c-3
-7 -5 -2 -5 12 0 14 2 19 5 13 2 -7 2 -19 0 -25z m-3734 5 c-7 -2 -19 -2 -25
0 -7 3 -2 5 12 5 14 0 19 -2 13 -5z m100 0 c-7 -2 -19 -2 -25 0 -7 3 -2 5 12
5 14 0 19 -2 13 -5z m-447 -22 c17 -11 16 -11 -6 -5 -14 4 -54 11 -90 15 l-65
8 71 -3 c39 -2 79 -8 90 -15z m264 2 c-47 -20 -48 -22 -25 -40 20 -15 20 -15
0 -11 -34 6 -30 37 7 53 18 8 38 14 43 14 6 0 -6 -7 -25 -16z m241 -15 c6 -11
8 -22 5 -26 -3 -3 -6 0 -6 6 0 6 -10 21 -22 32 -18 16 -19 20 -5 14 10 -3 22
-15 28 -26z m2979 22 c-34 -11 -60 -11 -35 0 11 5 29 8 40 8 16 0 15 -2 -5 -8z
m-3667 -7 c-7 -2 -19 -2 -25 0 -7 3 -2 5 12 5 14 0 19 -2 13 -5z m3604 -9 c-3
-3 -12 -4 -19 -1 -8 3 -5 6 6 6 11 1 17 -2 13 -5z m-3717 -30 c-58 -33 -105
-77 -141 -133 -16 -25 -29 -41 -29 -35 0 41 161 194 204 194 6 0 -9 -12 -34
-26z m3680 21 c0 -6 -73 -25 -78 -20 -2 2 11 8 29 14 41 11 49 12 49 6z m707
-97 c-2 -18 -4 -4 -4 32 0 36 2 50 4 33 2 -18 2 -48 0 -65z m-3939 26 c99 -89
100 -101 15 -169 l-48 -38 53 50 c28 27 52 55 52 61 0 17 -49 71 -103 113 -27
22 -45 39 -40 39 5 0 37 -25 71 -56z m155 49 c-7 -2 -19 -2 -25 0 -7 3 -2 5
12 5 14 0 19 -2 13 -5z m89 -10 c10 -9 18 -27 18 -40 0 -23 -26 -83 -36 -83
-2 0 2 13 11 30 18 35 19 74 3 88 -7 6 -26 12 -43 15 l-30 4 29 2 c16 0 38 -6
48 -16z m2883 -3 c-27 -12 -43 -12 -25 0 8 5 22 9 30 9 10 0 8 -3 -5 -9z
m-2758 -22 c-3 -8 -6 -5 -6 6 -1 11 2 17 5 13 3 -3 4 -12 1 -19z m2683 -3
c-46 -18 -64 -17 -25 0 17 8 37 14 45 14 8 0 -1 -7 -20 -14z m40 -163 c0 -6
-93 73 -115 99 -11 13 10 -3 48 -36 37 -32 67 -60 67 -63z m847 26 c-2 -13 -4
-5 -4 17 -1 22 1 32 4 23 2 -10 2 -28 0 -40z m-3739 3 c-13 -17 -27 -30 -32
-30 -6 -1 3 13 19 29 37 38 43 39 13 1z m82 -16 c-24 -25 -46 -45 -49 -45 -3
0 15 20 39 45 24 25 46 45 49 45 3 0 -15 -20 -39 -45z m2586 13 l29 -33 -32
29 c-31 28 -38 36 -30 36 2 0 16 -15 33 -32z m-126 7 c0 -2 -10 -9 -22 -15
-22 -11 -22 -10 -4 4 21 17 26 19 26 11z m-3369 -46 c-5 -13 -10 -19 -10 -12
-1 15 10 45 15 40 3 -2 0 -15 -5 -28z m3308 7 c-2 -2 -15 -9 -29 -15 -24 -11
-24 -11 -6 3 16 13 49 24 35 12z m251 -21 c13 -14 21 -25 18 -25 -2 0 -15 11
-28 25 -13 14 -21 25 -18 25 2 0 15 -11 28 -25z m-2791 -2 c-47 -59 -340 -275
-354 -261 -2 2 29 23 68 47 83 51 219 155 261 200 32 33 47 42 25 14z m3011
-18 c13 -14 21 -25 18 -25 -2 0 -15 11 -28 25 -13 14 -21 25 -18 25 2 0 15
-11 28 -25z m-530 10 c0 -6 -87 -65 -97 -65 -4 0 15 16 42 34 54 38 55 38 55
31z m-3263 -42 c-3 -10 -5 -4 -5 12 0 17 2 24 5 18 2 -7 2 -21 0 -30z m803
-28 c-29 -30 -56 -53 -58 -50 -4 4 98 104 108 105 2 0 -20 -25 -50 -55z m-215
35 c-3 -5 -27 -24 -53 -41 -54 -37 -46 -25 13 20 43 33 49 36 40 21z m3982
-37 c-3 -10 -5 -2 -5 17 0 19 2 27 5 18 2 -10 2 -26 0 -35z m-921 15 l19 -23
-25 20 c-14 11 -27 21 -29 22 -2 2 0 3 6 3 5 0 18 -10 29 -22z m267 -68 c-2
-2 -23 16 -46 40 l-42 44 46 -40 c25 -21 44 -41 42 -44z m-3926 38 c-3 -8 -6
-5 -6 6 -1 11 2 17 5 13 3 -3 4 -12 1 -19z m3153 8 c0 -2 -8 -10 -17 -17 -16
-13 -17 -12 -4 4 13 16 21 21 21 13z m555 -24 c-3 -3 -11 0 -18 7 -9 10 -8 11
6 5 10 -3 15 -9 12 -12z m-3230 -18 c-26 -20 -55 -36 -55 -30 0 5 63 46 70 46
3 -1 -4 -8 -15 -16z m1937 -1 c24 -22 24 -77 -2 -103 -40 -40 -130 -14 -130
38 0 9 9 32 20 50 16 27 26 32 57 32 20 0 45 -7 55 -17z m698 13 c0 -2 -8 -10
-17 -17 -16 -13 -17 -12 -4 4 13 16 21 21 21 13z m-3103 -38 c-3 -8 -6 -5 -6
6 -1 11 2 17 5 13 3 -3 4 -12 1 -19z m733 18 c0 -2 -8 -10 -17 -17 -16 -13
-17 -12 -4 4 13 16 21 21 21 13z m3820 -63 c-11 -17 -11 -17 -6 0 3 10 7 31 7
45 l2 27 4 -27 c2 -15 -1 -35 -7 -45z m-1490 50 c0 -5 -13 -17 -28 -27 l-27
-19 24 26 c26 28 31 32 31 20z m1103 -206 c29 -26 47 -47 41 -45 -6 2 -71 61
-145 132 -118 114 -57 63 104 -87z m-4243 164 c0 -10 -16 -48 -35 -85 -19 -37
-35 -60 -35 -52 0 9 14 38 31 66 20 33 30 59 27 75 -3 13 -1 22 3 19 5 -3 9
-13 9 -23z m475 19 c-3 -5 -12 -10 -18 -10 -7 0 -6 4 3 10 19 12 23 12 15 0z
m295 6 c0 -2 -8 -10 -17 -17 -16 -13 -17 -12 -4 4 13 16 21 21 21 13z m870
-57 c18 -84 55 -125 131 -146 33 -9 59 -19 59 -23 0 -3 -22 -12 -50 -19 -66
-17 -114 -70 -137 -151 -15 -57 -29 -75 -37 -47 -2 6 -9 31 -15 55 -18 63 -72
118 -137 139 -30 9 -54 20 -54 24 0 3 19 11 43 17 87 22 147 87 161 173 3 22
10 39 14 39 4 0 14 -28 22 -61z m-1701 13 c-19 -20 -42 -48 -52 -62 -17 -24
-17 -24 -6 -2 11 24 77 102 86 102 3 0 -10 -17 -28 -38z m-622 -4 c35 -33 32
-89 -8 -122 -37 -31 -77 -33 -112 -6 -31 25 -42 65 -26 102 24 58 98 71 146
26z m1083 2 c-19 -11 -39 -19 -45 -19 -5 0 6 8 25 19 19 11 40 19 45 19 6 0
-6 -8 -25 -19z m308 -3 c-29 -24 -98 -66 -86 -52 10 11 102 74 108 74 3 0 -7
-10 -22 -22z m2372 20 c0 -2 -12 -14 -27 -28 l-28 -24 24 28 c23 25 31 32 31
24z m-2245 -15 c-6 -4 -23 -18 -40 -32 l-30 -25 29 33 c17 17 34 32 40 32 6 0
6 -3 1 -8z m3076 -19 c13 -16 12 -17 -3 -4 -10 7 -18 15 -18 17 0 8 8 3 21
-13z m716 -15 c-3 -8 -6 -5 -6 6 -1 11 2 17 5 13 3 -3 4 -12 1 -19z m-4502
-18 c9 -16 13 -30 11 -30 -3 0 -12 14 -21 30 -9 17 -13 30 -11 30 3 0 12 -13
21 -30z m702 8 c-3 -8 -6 -5 -6 6 -1 11 2 17 5 13 3 -3 4 -12 1 -19z m-527 -2
c-26 -14 -89 -31 -80 -22 7 6 81 33 95 34 6 1 -1 -5 -15 -12z m2710 1 c0 -2
-17 -19 -37 -38 l-38 -34 34 38 c33 34 41 42 41 34z m-2255 -17 c-3 -5 -20
-19 -38 -30 -32 -22 -32 -22 3 9 37 32 45 37 35 21z m-290 -10 c-3 -5 -12 -10
-18 -10 -7 0 -6 4 3 10 19 12 23 12 15 0z m145 5 c0 -2 -13 -11 -30 -20 -38
-19 -40 -11 -2 9 31 17 32 18 32 11z m187 -58 c-14 -23 -42 -58 -63 -77 -33
-30 -31 -28 9 18 25 29 52 69 59 88 7 20 14 31 16 25 2 -6 -8 -30 -21 -54z
m3820 41 c-3 -8 -6 -5 -6 6 -1 11 2 17 5 13 3 -3 4 -12 1 -19z m-4408 8 c-2
-2 -17 -6 -34 -10 -22 -5 -26 -4 -15 4 14 9 59 15 49 6z m3851 -84 c0 -8 -47
34 -69 62 -16 21 -9 16 22 -14 26 -24 47 -46 47 -48z m-3660 58 c-19 -11 -39
-19 -45 -19 -5 0 6 8 25 19 19 11 40 19 45 19 6 0 -6 -8 -25 -19z m-543 -26
c-6 -20 -13 -32 -14 -27 -4 11 14 63 21 63 2 0 -1 -16 -7 -36z m658 6 c-3 -5
-12 -10 -18 -10 -7 0 -6 4 3 10 19 12 23 12 15 0z m160 0 c-3 -5 -16 -15 -28
-21 -19 -9 -19 -8 3 10 28 23 34 26 25 11z m3932 -12 c-3 -8 -6 -5 -6 6 -1 11
2 17 5 13 3 -3 4 -12 1 -19z m-4277 3 c-8 -5 -26 -11 -40 -15 -21 -5 -20 -3 5
9 32 15 60 20 35 6z m2550 -36 c-24 -25 -46 -45 -49 -45 -3 0 15 20 39 45 24
25 46 45 49 45 3 0 -15 -20 -39 -45z m677 29 c-3 -3 -12 -4 -19 -1 -8 3 -5 6
6 6 11 1 17 -2 13 -5z m-3620 -36 c-3 -7 -5 -2 -5 12 0 14 2 19 5 13 2 -7 2
-19 0 -25z m523 28 c0 -2 -7 -7 -16 -10 -8 -3 -12 -2 -9 4 6 10 25 14 25 6z
m155 -16 c-3 -5 -12 -10 -18 -10 -7 0 -6 4 3 10 19 12 23 12 15 0z m-388 -6
c-3 -3 -12 -4 -19 -1 -8 3 -5 6 6 6 11 1 17 -2 13 -5z m158 -14 c-22 -10 -44
-18 -50 -18 -5 0 8 8 30 19 22 10 45 18 50 18 6 0 -8 -9 -30 -19z m2935 10
c-8 -5 -19 -10 -25 -10 -5 0 -3 5 5 10 8 5 20 10 25 10 6 0 3 -5 -5 -10z
m1277 -12 c-3 -8 -6 -5 -6 6 -1 11 2 17 5 13 3 -3 4 -12 1 -19z m-4750 -20
c-3 -7 -5 -2 -5 12 0 14 2 19 5 13 2 -7 2 -19 0 -25z m733 27 c0 -6 -56 -35
-67 -35 -4 1 8 9 27 20 39 22 40 22 40 15z m-605 -23 c-3 -3 -11 0 -18 7 -9
10 -8 11 6 5 10 -3 15 -9 12 -12z m178 11 c-7 -2 -19 -2 -25 0 -7 3 -2 5 12 5
14 0 19 -2 13 -5z m-55 -10 c-10 -2 -26 -2 -35 0 -10 3 -2 5 17 5 19 0 27 -2
18 -5z m397 -23 c-3 -5 -12 -10 -18 -10 -7 0 -6 4 3 10 19 12 23 12 15 0z
m3695 -55 c35 -36 62 -65 59 -65 -2 0 -34 29 -69 65 -35 36 -62 65 -59 65 2 0
34 -29 69 -65z m195 -5 c38 -38 67 -70 64 -70 -2 0 -36 32 -74 70 -38 39 -67
70 -64 70 2 0 36 -31 74 -70z m-4170 40 c-11 -5 -27 -9 -35 -9 -9 0 -8 4 5 9
11 5 27 9 35 9 9 0 8 -4 -5 -9z m210 -10 c-29 -13 -34 -19 -20 -20 11 -1 15
-4 9 -6 -6 -3 -21 -1 -34 4 -23 8 -21 10 20 25 61 21 74 20 25 -3z m260 10
c-3 -5 -12 -10 -18 -10 -7 0 -6 4 3 10 19 12 23 12 15 0z m-791 -15 c11 -8 16
-15 10 -15 -5 0 -18 7 -28 15 -11 8 -16 15 -10 15 5 0 18 -7 28 -15z m259 -2
c-7 -2 -19 -2 -25 0 -7 3 -2 5 12 5 14 0 19 -2 13 -5z m3707 -28 c19 -19 32
-35 29 -35 -3 0 -20 16 -39 35 -19 19 -32 35 -29 35 3 0 20 -16 39 -35z
m-3763 19 c-3 -3 -12 -4 -19 -1 -8 3 -5 6 6 6 11 1 17 -2 13 -5z m523 -4 c-8
-5 -19 -10 -25 -10 -5 0 -3 5 5 10 8 5 20 10 25 10 6 0 3 -5 -5 -10z m2170 7
c0 -2 -15 -16 -32 -33 l-33 -29 29 33 c28 30 36 37 36 29z m380 0 c0 -2 -10
-12 -22 -23 l-23 -19 19 23 c18 21 26 27 26 19z m487 -39 c62 -29 124 -92 159
-160 22 -42 28 -71 32 -138 4 -76 1 -92 -22 -144 -15 -33 -38 -75 -52 -93 -72
-95 -226 -147 -350 -118 -214 50 -331 282 -241 479 83 181 294 259 474 174z
m-3644 25 c-18 -2 -48 -2 -65 0 -18 2 -4 4 32 4 36 0 50 -2 33 -4z m450 -10
c-7 -2 -19 -2 -25 0 -7 3 -2 5 12 5 14 0 19 -2 13 -5z m110 0 c-7 -2 -19 -2
-25 0 -7 3 -2 5 12 5 14 0 19 -2 13 -5z m3991 -27 c-3 -15 -8 -25 -11 -23 -2
3 -1 17 3 31 3 15 8 25 11 23 2 -3 1 -17 -3 -31z m-1854 -40 c0 -2 -8 -10 -17
-17 -16 -13 -17 -12 -4 4 13 16 21 21 21 13z m1571 -13 c13 -16 12 -17 -3 -4
-10 7 -18 15 -18 17 0 8 8 3 21 -13z m260 -10 c-12 -20 -14 -14 -5 12 4 9 9
14 11 11 3 -2 0 -13 -6 -23z m-40 -10 c13 -16 12 -17 -3 -4 -10 7 -18 15 -18
17 0 8 8 3 21 -13z m-131 -58 c19 -19 32 -35 29 -35 -3 0 -20 16 -39 35 -19
19 -32 35 -29 35 3 0 20 -16 39 -35z m-1736 -10 c-9 -14 -18 -25 -21 -25 -5 0
5 18 20 38 17 22 18 13 1 -13z m1835 -72 c2 -2 2 -5 -1 -8 -2 -3 -18 10 -34
28 l-29 32 30 -25 c17 -14 32 -26 34 -27z m-1889 -2 c-5 -11 -15 -23 -21 -27
-6 -3 -3 5 6 20 20 30 30 35 15 7z m1407 -13 c-3 -8 -6 -5 -6 6 -1 11 2 17 5
13 3 -3 4 -12 1 -19z m-5389 -54 c6 -45 -41 -70 -72 -38 -23 22 -20 60 6 78
19 13 25 14 43 2 11 -7 22 -26 23 -42z m4419 -31 c-3 -10 -5 -4 -5 12 0 17 2
24 5 18 2 -7 2 -21 0 -30z m1388 -62 c-21 -43 -29 -39 -8 4 9 19 18 33 21 31
2 -2 -4 -18 -13 -35z m-1378 -23 c-3 -8 -6 -5 -6 6 -1 11 2 17 5 13 3 -3 4
-12 1 -19z m-577 -18 c-6 -11 -13 -20 -16 -20 -2 0 0 9 6 20 6 11 13 20 16 20
2 0 0 -9 -6 -20z m-2403 -25 c92 -38 150 -115 160 -209 9 -86 -11 -141 -73
-204 l-53 -52 25 -56 c54 -122 70 -300 39 -432 -47 -200 -218 -363 -455 -433
-58 -17 -107 -22 -215 -25 -283 -6 -479 62 -613 212 -91 101 -131 222 -132
394 l0 76 -36 13 c-110 40 -186 183 -163 309 36 191 262 267 405 137 20 -19
42 -31 48 -28 6 4 32 22 57 40 149 106 385 154 587 119 50 -9 96 -16 102 -16
5 0 21 22 35 49 27 55 66 87 128 107 57 17 110 17 154 -1z m4313 -15 c-6 -11
-13 -20 -16 -20 -2 0 0 9 6 20 6 11 13 20 16 20 2 0 0 -9 -6 -20z m-2080 5 c0
-8 -92 -165 -97 -165 -5 0 24 56 54 102 12 21 23 44 23 53 0 8 5 15 10 15 6 0
10 -2 10 -5z m-72 -12 c-10 -2 -28 -2 -40 0 -13 2 -5 4 17 4 22 1 32 -1 23 -4z
m-85 -10 c-7 -2 -19 -2 -25 0 -7 3 -2 5 12 5 14 0 19 -2 13 -5z m-46 -9 c-3
-3 -12 -4 -19 -1 -8 3 -5 6 6 6 11 1 17 -2 13 -5z m324 -17 c-10 -9 -11 -8 -5
6 3 10 9 15 12 12 3 -3 0 -11 -7 -18z m-391 -1 c0 -3 -4 -8 -10 -11 -5 -3 -10
-1 -10 4 0 6 5 11 10 11 6 0 10 -2 10 -4z m-90 -36 c-19 -11 -39 -19 -45 -19
-5 0 6 8 25 19 19 11 40 19 45 19 6 0 -6 -8 -25 -19z m458 -5 c-6 -14 -13 -23
-15 -21 -5 5 15 46 22 46 3 0 -1 -11 -7 -25z m-1386 -2 c22 -20 23 -70 1 -95
-35 -39 -113 -6 -113 49 0 55 70 84 112 46z m868 -18 c0 -2 -10 -9 -22 -15
-22 -11 -22 -10 -4 4 21 17 26 19 26 11z m-50 -29 c0 -2 -18 -15 -40 -30 -22
-14 -40 -24 -40 -22 0 5 71 56 77 56 2 0 3 -2 3 -4z m525 -26 c-9 -16 -18 -30
-21 -30 -2 0 2 14 11 30 9 17 18 30 21 30 2 0 -2 -13 -11 -30z m1935 11 c-5
-11 -15 -23 -21 -27 -6 -3 -3 5 6 20 20 30 30 35 15 7z m-2550 -44 c0 -2 -26
-25 -57 -51 l-58 -48 53 51 c49 46 62 57 62 48z m440 -18 c-7 -11 -14 -18 -17
-15 -3 3 0 12 7 21 18 21 23 19 10 -6z m2846 -135 c22 -46 66 -81 117 -94 64
-17 69 -19 64 -33 -2 -6 -25 -15 -51 -19 -67 -9 -110 -46 -135 -113 -12 -31
-21 -62 -21 -70 0 -7 -3 -21 -6 -30 -5 -11 -14 7 -29 54 -37 115 -62 141 -155
156 -78 13 -78 21 0 44 89 27 124 60 139 132 6 27 11 59 11 70 0 10 6 28 13
39 11 18 13 14 24 -40 7 -34 20 -77 29 -96z m-1756 89 c0 -8 -38 17 -51 33 -9
11 -2 9 19 -6 17 -13 32 -25 32 -27z m-969 4 c-10 -9 -11 -8 -5 6 3 10 9 15
12 12 3 -3 0 -11 -7 -18z m-211 -127 c-60 -119 -83 -154 -54 -83 20 46 104
203 110 203 2 0 -23 -54 -56 -120z m-501 48 c-19 -18 -45 -47 -59 -63 -14 -17
-32 -35 -40 -40 -8 -5 16 26 54 68 38 43 71 75 74 72 3 -2 -10 -19 -29 -37z
m2601 38 c0 -2 -8 -10 -17 -17 -16 -13 -17 -12 -4 4 13 16 21 21 21 13z m-707
-33 c-7 -2 -21 -2 -30 0 -10 3 -4 5 12 5 17 0 24 -2 18 -5z m120 0 c-7 -2 -19
-2 -25 0 -7 3 -2 5 12 5 14 0 19 -2 13 -5z m467 -117 c0 -2 -8 -10 -17 -17
-16 -13 -17 -12 -4 4 13 16 21 21 21 13z m-2641 -81 c-28 -41 -53 -75 -56 -75
-6 0 4 16 55 88 24 34 46 62 48 62 3 0 -18 -34 -47 -75z m1271 61 c0 -2 -8
-10 -17 -17 -16 -13 -17 -12 -4 4 13 16 21 21 21 13z m1340 -19 c0 -2 -15 -16
-32 -33 l-33 -29 29 33 c28 30 36 37 36 29z m-1380 -11 c0 -2 -8 -10 -17 -17
-16 -13 -17 -12 -4 4 13 16 21 21 21 13z m244 -15 c4 -5 -3 -7 -14 -4 -23 6
-26 13 -6 13 8 0 17 -4 20 -9z m-59 -13 c-11 -6 -46 -29 -77 -50 -32 -21 -58
-36 -58 -34 0 8 133 96 145 96 5 0 1 -6 -10 -12z m-835 -17 c0 -5 -9 -19 -20
-32 l-20 -24 17 32 c19 34 23 39 23 24z m600 5 c0 -2 -8 -10 -17 -17 -16 -13
-17 -12 -4 4 13 16 21 21 21 13z m297 -28 c-3 -7 -5 -2 -5 12 0 14 2 19 5 13
2 -7 2 -19 0 -25z m-337 -12 c0 -2 -8 -10 -17 -17 -16 -13 -17 -12 -4 4 13 16
21 21 21 13z m318 -37 c-6 -16 -12 -28 -14 -26 -5 5 13 57 20 57 3 0 0 -14 -6
-31z m1062 28 c0 -2 -12 -14 -27 -28 l-28 -24 24 28 c23 25 31 32 31 24z
m-2160 -23 c0 -2 -15 -4 -32 -3 -27 0 -29 2 -13 8 18 8 45 4 45 -5z m68 9
c-10 -2 -28 -2 -40 0 -13 2 -5 4 17 4 22 1 32 -1 23 -4z m-143 -13 c-3 -5 -12
-10 -18 -10 -7 0 -6 4 3 10 19 12 23 12 15 0z m-99 -19 c-6 -9 -46 -22 -46
-15 0 3 10 9 23 14 29 11 29 11 23 1z m51 3 c-3 -3 -12 -4 -19 -1 -8 3 -5 6 6
6 11 1 17 -2 13 -5z m843 3 c0 -1 -30 -32 -67 -67 l-68 -65 65 68 c60 62 70
72 70 64z m185 -5 c-6 -4 -23 -18 -40 -32 l-30 -25 29 33 c17 17 34 32 40 32
6 0 6 -3 1 -8z m-1145 -22 c-8 -5 -22 -9 -30 -9 -10 0 -8 3 5 9 27 12 43 12
25 0z m-209 -27 c-12 -20 -14 -14 -5 12 4 9 9 14 11 11 3 -2 0 -13 -6 -23z
m756 5 c-3 -8 -6 -5 -6 6 -1 11 2 17 5 13 3 -3 4 -12 1 -19z m743 -20 c-23
-35 -23 -31 -1 15 8 15 16 25 19 22 2 -2 -5 -19 -18 -37z m-1435 -3 c-38 -12
-74 -20 -79 -17 -5 3 20 13 55 22 92 25 106 22 24 -5z m1205 -8 c0 -2 -12 -14
-27 -28 l-28 -24 24 28 c23 25 31 32 31 24z m1210 0 c0 -2 -15 -16 -32 -33
l-33 -29 29 33 c28 30 36 37 36 29z m-1016 -39 c-12 -22 -116 -148 -127 -155
-5 -3 21 33 59 80 65 82 84 103 68 75z m-574 -105 c0 -8 -9 0 -50 45 l-45 47
48 -45 c26 -24 47 -45 47 -47z m242 0 c-100 -111 -118 -131 -106 -113 29 43
161 190 170 190 3 0 -26 -35 -64 -77z m1268 73 c0 -2 -8 -10 -17 -17 -16 -13
-17 -12 -4 4 13 16 21 21 21 13z m-1390 -19 c0 -2 -10 -12 -22 -23 l-23 -19
19 23 c18 21 26 27 26 19z m1320 -41 c0 -2 -8 -10 -17 -17 -16 -13 -17 -12 -4
4 13 16 21 21 21 13z m-800 -30 c0 -2 -8 -10 -17 -17 -16 -13 -17 -12 -4 4 13
16 21 21 21 13z m720 -29 c0 -2 -10 -12 -22 -23 l-23 -19 19 23 c18 21 26 27
26 19z m-920 -20 c0 -2 -19 -21 -42 -42 l-43 -40 40 43 c36 39 45 47 45 39z
m150 -11 c0 -2 -8 -10 -17 -17 -16 -13 -17 -12 -4 4 13 16 21 21 21 13z m690
-30 c0 -2 -8 -10 -17 -17 -16 -13 -17 -12 -4 4 13 16 21 21 21 13z m-2780 -13
c-28 -10 -50 -36 -50 -57 0 -34 15 -48 56 -56 39 -8 39 -8 7 -9 -40 -1 -73 28
-73 64 0 29 32 65 58 64 13 0 14 -2 2 -6z m64 -30 c10 -25 3 -23 -17 3 -13 18
-14 22 -3 18 8 -3 17 -13 20 -21z m1387 -6 c-10 -9 -11 -8 -5 6 3 10 9 15 12
12 3 -3 0 -11 -7 -18z m589 19 c0 -2 -8 -10 -17 -17 -16 -13 -17 -12 -4 4 13
16 21 21 21 13z m-420 -10 c0 -2 -8 -10 -17 -17 -16 -13 -17 -12 -4 4 13 16
21 21 21 13z m1080 -20 c0 -2 -12 -11 -27 -20 l-28 -17 24 20 c23 21 31 25 31
17z m-2638 -48 c-8 -8 -9 -4 -5 13 4 13 8 18 11 10 2 -7 -1 -18 -6 -23z m1359
15 c-5 -10 -17 -27 -26 -38 -16 -19 -17 -19 -3 5 26 46 29 50 34 50 3 0 0 -8
-5 -17z m169 13 c0 -2 -8 -10 -17 -17 -16 -13 -17 -12 -4 4 13 16 21 21 21 13z
m-4201 -111 l50 -105 74 0 c42 0 82 -3 91 -6 22 -8 20 -40 -2 -56 -11 -7 -42
-34 -71 -60 l-53 -48 22 -95 c20 -88 20 -115 1 -115 -5 0 -43 23 -85 50 -42
28 -80 50 -84 50 -4 0 -41 -23 -82 -50 -41 -27 -81 -50 -88 -50 -14 0 -10 47
14 150 l12 55 -74 68 c-83 77 -91 97 -40 97 18 0 60 3 94 6 58 6 62 8 76 43
32 80 78 171 87 171 5 0 31 -47 58 -105z m4391 62 c-38 -35 -38 -32 0 11 14
16 27 27 29 25 3 -2 -10 -18 -29 -36z m860 29 c0 -2 -8 -10 -17 -17 -16 -13
-17 -12 -4 4 13 16 21 21 21 13z m-1096 -41 c-9 -14 -18 -25 -21 -25 -5 0 5
18 20 38 17 22 18 13 1 -13z m416 22 c0 -2 -10 -12 -22 -23 l-23 -19 19 23
c18 21 26 27 26 19z m817 -59 c-3 -8 -6 -5 -6 6 -1 11 2 17 5 13 3 -3 4 -12 1
-19z m938 -3 c28 -27 34 -88 12 -116 -51 -66 -150 -41 -163 42 -13 82 92 134
151 74z m-2050 -61 c-126 -118 -261 -224 -287 -224 -5 0 -8 10 -8 23 0 17 2
19 10 7 16 -26 79 18 254 177 55 51 103 92 106 92 3 0 -31 -34 -75 -75z m215
31 c-10 -12 -1 -26 56 -87 l68 -73 -73 72 c-65 65 -71 74 -59 92 7 11 14 18
17 16 2 -3 -2 -11 -9 -20z m-669 -51 c52 -51 66 -70 60 -83 -5 -9 -16 -45 -25
-81 -19 -78 -9 -128 31 -160 36 -28 85 -25 155 10 32 17 60 30 62 30 1 0 3
-13 3 -30 0 -18 -4 -27 -11 -23 -6 4 -2 -4 9 -18 11 -13 13 -18 5 -11 -19 17
-30 15 -30 -4 0 -9 -16 -49 -34 -88 -38 -77 -112 -163 -164 -190 -18 -9 -31
-20 -28 -24 3 -5 0 -14 -6 -22 -8 -12 -9 -12 -4 3 3 9 4 17 2 17 -2 0 -37 -15
-77 -33 -41 -19 -134 -57 -207 -86 -160 -64 -164 -63 -146 36 26 148 94 362
139 439 28 48 31 59 13 48 -8 -4 -10 -3 -5 2 5 5 12 9 15 9 4 0 21 11 38 23
17 13 77 45 135 72 116 54 134 75 100 112 -12 13 -28 23 -34 23 -7 1 -11 6
-10 12 3 14 -55 68 -64 59 -4 -4 -1 -12 7 -17 12 -9 12 -10 -2 -5 -10 3 -18 2
-18 -3 0 -5 9 -11 20 -14 15 -4 18 -10 13 -24 -7 -17 -8 -17 -11 0 -2 9 -12
17 -22 17 -10 0 -22 5 -26 12 -5 7 -3 8 6 3 10 -6 12 -4 7 9 -4 9 -3 15 2 12
5 -3 11 1 15 9 3 8 1 15 -5 15 -17 0 -106 -54 -105 -64 1 -5 -9 -10 -21 -11
-27 -2 -43 -16 -25 -22 6 -3 9 -9 6 -14 -3 -6 -12 -2 -21 8 -14 17 -14 17 -10
-4 3 -14 0 -23 -7 -23 -6 0 -17 -9 -24 -20 -7 -11 -18 -20 -25 -19 -9 0 -9 2
1 6 6 2 10 9 6 14 -3 5 0 9 6 9 6 0 9 4 5 10 -3 5 -12 7 -20 4 -8 -4 -12 -11
-8 -17 3 -6 1 -7 -5 -3 -7 4 -12 2 -12 -4 0 -6 -4 -9 -9 -5 -5 3 -12 1 -15 -4
-4 -5 2 -11 11 -13 15 -3 14 -6 -7 -26 -13 -12 -30 -20 -37 -18 -7 3 -19 -1
-27 -9 -12 -13 -24 -17 -66 -24 -3 -1 1 -5 8 -10 10 -6 7 -12 -13 -25 -15 -10
-29 -15 -32 -12 -10 10 -33 -15 -26 -28 3 -6 3 -8 -2 -4 -4 4 -14 3 -22 -4
-11 -9 -11 -14 4 -30 16 -18 16 -18 0 -12 -9 3 -17 11 -17 18 0 6 -13 -5 -29
-24 -16 -19 -27 -41 -24 -50 4 -12 3 -12 -5 -1 -7 9 -12 10 -16 2 -9 -14 2
-33 15 -26 5 4 9 2 9 -3 0 -6 -7 -12 -15 -16 -10 -3 -15 1 -15 12 0 13 -3 12
-16 -6 -8 -12 -12 -27 -8 -34 4 -6 3 -8 -3 -5 -6 4 -13 -2 -16 -13 -3 -11 -1
-22 4 -25 14 -9 79 6 73 16 -3 6 5 7 19 4 13 -4 46 0 73 8 58 17 78 13 64 -12
-5 -10 -6 -22 -2 -26 4 -5 2 -5 -5 -1 -17 9 -65 -76 -57 -100 4 -14 3 -15 -4
-6 -7 10 -14 3 -31 -28 -25 -48 -28 -68 -6 -50 10 9 15 9 15 1 0 -6 5 -11 11
-11 6 0 9 7 5 15 -7 19 -2 19 14 0 10 -12 7 -16 -16 -25 -21 -8 -25 -13 -15
-19 8 -5 9 -11 4 -14 -6 -4 -16 5 -23 19 l-14 25 -13 -23 c-16 -31 -16 -39 2
-32 8 4 12 11 8 17 -3 6 -1 7 5 3 8 -5 5 -20 -10 -51 -23 -48 -35 -55 -19 -11
6 14 7 26 2 26 -15 0 -91 -277 -91 -332 0 -13 6 -30 13 -37 10 -10 9 -12 -3
-9 -10 2 -16 -7 -18 -29 -2 -20 1 -33 8 -33 8 0 10 9 6 25 -4 15 -2 25 4 25 6
0 8 -4 5 -10 -3 -5 -3 -10 2 -10 4 0 8 -11 8 -26 0 -18 -4 -24 -17 -21 -10 3
-15 0 -12 -8 7 -16 54 -7 54 11 0 8 7 14 15 14 13 0 14 4 5 23 -9 19 -9 20 2
6 16 -20 58 -34 58 -20 0 6 3 10 8 9 13 -5 102 33 102 43 0 6 -5 7 -12 3 -7
-4 -8 -3 -4 5 4 6 12 9 17 6 5 -4 9 0 9 7 0 11 2 11 9 0 6 -10 13 -11 34 -1
15 7 24 15 22 20 -3 4 0 11 6 15 8 4 9 3 5 -4 -11 -18 5 -14 47 12 37 23 37
23 15 35 -13 6 -15 9 -5 7 21 -7 67 13 67 28 0 6 5 4 10 -4 9 -13 11 -13 19 0
5 8 8 17 5 21 -2 4 1 11 7 15 7 4 9 3 5 -4 -3 -6 -2 -13 4 -17 13 -8 52 14 45
25 -3 6 0 7 8 5 7 -3 21 2 29 12 16 18 18 22 18 44 0 5 5 7 10 4 6 -3 10 0 10
7 0 10 2 10 9 -1 5 -8 11 -9 15 -3 4 6 -2 15 -11 21 -10 6 -13 11 -6 11 6 0
15 -4 18 -10 7 -12 35 15 54 52 12 23 17 26 29 16 11 -10 13 -25 7 -73 -5 -33
-8 -75 -8 -93 0 -20 -3 -28 -9 -20 -5 8 -8 1 -8 -19 0 -23 5 -33 16 -33 9 0
12 5 8 12 -4 7 -3 8 5 4 12 -8 81 30 81 45 0 5 7 9 17 9 25 0 11 8 -26 15 -21
4 -30 2 -26 -5 3 -5 1 -10 -4 -10 -16 0 -13 20 4 26 8 3 28 1 44 -4 25 -9 32
-7 50 12 12 12 18 26 14 30 -4 4 0 4 8 1 11 -4 29 13 60 55 43 59 54 97 34
113 -6 5 -4 7 5 4 8 -2 14 -11 12 -21 -5 -25 6 -19 23 14 9 17 13 36 9 42 -4
7 -3 8 4 4 8 -4 16 3 22 19 13 33 13 36 -1 32 -6 -1 -14 4 -16 11 -4 11 -1 12
16 3 23 -13 28 -2 9 17 -10 10 -10 15 2 22 8 5 18 6 24 3 5 -4 7 3 4 15 -4 12
-3 20 2 17 13 -8 19 32 6 45 -8 8 -7 10 7 5 13 -6 17 -2 17 14 0 12 -5 21 -11
21 -5 0 -7 5 -3 11 5 8 9 8 14 -1 5 -8 9 -4 13 12 7 24 -13 48 -40 48 -7 0
-13 5 -13 10 0 7 8 7 23 -1 15 -8 9 2 -17 29 -22 23 -44 38 -49 35 -6 -3 -7
-1 -3 5 4 7 3 12 -2 12 -6 0 -13 7 -16 16 -3 8 26 -13 64 -47 39 -34 70 -69
70 -79 0 -24 -52 -174 -88 -252 -61 -134 -152 -248 -258 -324 -76 -54 -117
-62 -122 -23 -2 15 4 54 12 87 9 33 16 74 16 91 0 30 -13 41 -25 21 -3 -5 -1
-10 6 -10 17 0 -34 -53 -101 -104 -110 -85 -405 -240 -558 -293 -46 -16 -54
-16 -63 -3 -22 33 16 286 66 435 25 73 96 222 138 288 21 32 37 59 37 61 0 1
-39 -8 -87 -21 -148 -39 -174 -29 -132 52 63 118 226 270 399 372 47 28 112
66 145 86 33 19 71 36 83 36 16 1 46 -20 93 -65z m1484 46 c-3 -5 -12 -10 -18
-10 -7 0 -6 4 3 10 19 12 23 12 15 0z m92 -62 c-2 -13 -4 -5 -4 17 -1 22 1 32
4 23 2 -10 2 -28 0 -40z m-157 19 c-57 -39 -95 -62 -88 -53 13 15 103 75 113
75 5 1 -6 -10 -25 -22z m-1553 6 c-4 -3 1 -12 10 -19 16 -11 15 -12 -8 -7 -16
3 -32 -1 -42 -12 -10 -9 -17 -13 -17 -9 0 9 49 54 58 54 3 0 2 -3 -1 -7z
m1343 3 c0 -2 -12 -11 -27 -20 l-28 -17 24 20 c23 21 31 25 31 17z m-1359 -73
c13 -16 12 -17 -3 -4 -10 7 -18 15 -18 17 0 8 8 3 21 -13z m63 9 c2 -4 1 -14
-5 -22 -5 -8 -9 -11 -9 -6 0 5 -7 3 -15 -4 -9 -7 -18 -10 -22 -6 -3 3 -1 6 6
6 7 0 11 6 8 14 -8 19 26 35 37 18z m289 -47 c-15 -30 -29 -53 -31 -51 -4 5
46 106 53 106 3 0 -7 -25 -22 -55z m907 50 c0 -2 -10 -9 -22 -15 -22 -11 -22
-10 -4 4 21 17 26 19 26 11z m-1306 -44 c-2 -2 -10 1 -18 8 -10 8 -16 9 -19 1
-3 -6 -4 -5 -2 2 1 7 8 12 14 11 6 -2 11 3 12 10 0 6 4 3 8 -8 5 -11 7 -22 5
-24z m209 31 c3 -4 -3 -17 -13 -30 -11 -13 -21 -18 -25 -12 -3 5 0 10 7 10 10
0 9 3 -2 11 -13 9 -12 10 2 5 20 -6 34 10 16 17 -9 4 -10 6 -1 6 6 1 14 -2 16
-7z m-183 -12 c0 -5 -4 -10 -10 -10 -5 0 -10 5 -10 10 0 6 5 10 10 10 6 0 10
-4 10 -10z m-1601 -52 c251 -150 401 -314 401 -438 0 -27 -7 -33 -67 -64 -73
-36 -148 -50 -202 -38 -34 7 -34 8 -52 96 -17 87 -68 209 -105 254 -17 21 -21
21 -39 9 -21 -16 -23 -9 35 -167 71 -194 38 -399 -93 -569 -40 -51 -167 -151
-192 -151 -8 0 -15 22 -19 54 -24 192 -203 345 -403 346 -99 0 -228 -72 -268
-150 -13 -25 -13 -30 3 -49 l17 -21 35 33 c90 84 177 115 270 96 174 -36 266
-156 264 -344 -2 -141 -54 -250 -152 -320 -60 -42 -162 -47 -264 -14 -198 63
-383 267 -411 452 -5 33 -2 43 27 75 43 47 80 122 96 192 18 79 37 135 77 223
28 62 32 81 23 93 -47 56 -131 -63 -168 -238 -31 -144 -69 -207 -151 -251 -93
-51 -182 -31 -238 54 -26 40 -28 49 -27 143 1 89 4 110 33 181 60 149 162 304
276 422 62 64 55 63 188 8 136 -56 263 -78 432 -72 99 3 164 11 220 26 100 27
247 98 300 145 22 19 46 35 54 36 8 0 53 -23 100 -52z m3336 -15 c-3 -24 -9
-43 -11 -40 -3 3 -2 29 2 58 4 30 9 48 12 41 2 -7 1 -34 -3 -59z m-1608 37 c1
-16 -1 -17 -12 -7 -7 6 -11 15 -8 20 8 13 19 7 20 -13z m1308 10 c-3 -5 -16
-15 -28 -21 -19 -9 -19 -8 3 10 28 23 34 26 25 11z m-1348 -6 c-3 -3 -12 -4
-19 -1 -8 3 -5 6 6 6 11 1 17 -2 13 -5z m113 2 c0 -3 -4 -8 -10 -11 -5 -3 -10
-1 -10 4 0 6 5 11 10 11 6 0 10 -2 10 -4z m-280 -16 c-12 -8 -12 -10 -1 -10 8
0 12 -3 8 -6 -9 -9 -28 6 -22 17 4 5 12 9 18 9 7 0 6 -4 -3 -10z m140 -5 c4 3
6 -4 3 -15 -3 -11 -9 -20 -14 -20 -5 0 -5 8 -2 18 6 15 5 16 -12 2 -17 -14
-17 -14 -4 8 8 12 15 18 17 12 2 -6 7 -8 12 -5z m751 -2 c13 -16 12 -17 -3 -4
-10 7 -18 15 -18 17 0 8 8 3 21 -13z m-906 -43 c3 -14 3 -20 -2 -14 -4 6 -17
16 -28 23 -17 11 -18 12 -1 7 14 -5 17 -2 12 11 -5 12 -4 14 2 8 5 -5 13 -21
17 -35z m86 26 c5 3 9 0 9 -6 0 -15 -23 -7 -26 8 -1 7 0 8 3 2 2 -5 9 -8 14
-4z m1154 4 c-3 -5 -12 -10 -18 -10 -7 0 -6 4 3 10 19 12 23 12 15 0z m235 5
c0 -2 -10 -9 -22 -15 -22 -11 -22 -10 -4 4 21 17 26 19 26 11z m-1415 -27 c4
-3 2 -9 -3 -12 -5 -3 -15 1 -21 8 -10 11 -9 14 3 12 9 -1 18 -5 21 -8z m-152
-19 c-4 -15 -8 -17 -14 -8 -6 11 4 28 18 29 0 0 -1 -9 -4 -21z m1744 15 c-3
-3 -12 -4 -19 -1 -8 3 -5 6 6 6 11 1 17 -2 13 -5z m-1669 -30 c1 -1 -5 -4 -16
-6 -12 -4 -18 1 -19 14 -2 17 0 18 15 7 9 -8 18 -14 20 -15z m96 -4 c-9 -16
-21 -30 -27 -29 -8 0 -8 2 1 6 6 2 12 10 12 17 0 10 19 36 26 36 1 0 -4 -13
-12 -30z m887 13 c13 -16 12 -17 -3 -4 -10 7 -18 15 -18 17 0 8 8 3 21 -13z
m-1117 -36 c-9 -5 -18 -6 -21 -3 -4 3 -1 6 5 6 7 0 12 8 12 18 0 14 2 15 10 2
6 -10 4 -17 -6 -23z m851 3 l20 -25 -22 19 c-13 11 -23 24 -23 29 0 6 1 8 3 6
1 -2 11 -15 22 -29z m675 26 c0 -2 -12 -11 -27 -20 l-28 -17 24 20 c23 21 31
25 31 17z m-1550 -10 c0 -2 -7 -7 -16 -10 -8 -3 -12 -2 -9 4 6 10 25 14 25 6z
m110 -10 c0 -2 -6 -9 -13 -15 -10 -8 -14 -7 -14 4 0 8 6 15 14 15 7 0 13 -2
13 -4z m70 -6 c0 -5 -2 -10 -4 -10 -3 0 -8 5 -11 10 -3 6 -1 10 4 10 6 0 11
-4 11 -10z m27 3 c-4 -3 -2 -12 4 -20 7 -8 8 -13 1 -13 -12 0 -23 26 -15 34 4
3 9 6 11 6 3 0 2 -3 -1 -7z m-62 -33 c-4 -12 -9 -19 -12 -17 -3 3 -2 15 2 27
4 12 9 19 12 17 3 -3 2 -15 -2 -27z m1324 1 c-13 -11 -26 -17 -28 -15 -5 5 30
33 43 34 4 0 -2 -9 -15 -19z m-1356 -10 c3 -11 -1 -22 -8 -24 -8 -4 -10 3 -7
19 5 29 8 30 15 5z m-152 -5 c-1 -3 -4 -6 -8 -7 -5 0 -14 -5 -20 -11 -10 -8
-13 -6 -13 6 0 10 4 15 9 11 5 -3 13 0 16 6 7 10 18 7 16 -5z m44 -15 c-3 -6
-14 -10 -23 -10 -15 1 -15 2 1 6 9 2 17 9 17 15 0 6 3 9 6 5 3 -3 3 -10 -1
-16z m48 -14 c4 3 7 1 7 -5 0 -7 -7 -12 -15 -12 -9 0 -19 -10 -24 -22 -6 -17
-9 -18 -14 -5 -3 9 0 18 8 21 9 3 12 12 8 23 -6 15 -4 16 9 6 8 -7 18 -10 21
-6z m902 -7 c10 -11 16 -20 13 -20 -3 0 -13 9 -23 20 -10 11 -16 20 -13 20 3
0 13 -9 23 -20z m-870 0 c3 -5 1 -10 -4 -10 -6 0 -11 5 -11 10 0 6 2 10 4 10
3 0 8 -4 11 -10z m95 4 c0 -8 -19 -13 -24 -6 -3 5 1 9 9 9 8 0 15 -2 15 -3z
m910 2 c0 -2 -8 -10 -17 -17 -16 -13 -17 -12 -4 4 13 16 21 21 21 13z m861
-23 c-12 -20 -14 -14 -5 12 4 9 9 14 11 11 3 -2 0 -13 -6 -23z m-1986 7 c3 -5
1 -10 -4 -10 -6 0 -11 5 -11 10 0 6 2 10 4 10 3 0 8 -4 11 -10z m-22 -20 c3
-11 1 -17 -4 -14 -6 3 -17 0 -26 -8 -14 -11 -13 -8 1 15 22 32 22 32 29 7z
m183 8 c4 -7 3 -10 -1 -5 -5 4 -18 -1 -29 -10 -21 -18 -21 -18 -2 5 22 26 23
26 32 10z m1326 -140 c-5 -19 -7 0 -8 59 -1 86 -1 87 7 29 5 -33 5 -72 1 -88z
m-1468 120 c-3 -4 -9 -8 -15 -8 -5 0 -9 4 -9 8 0 5 7 9 15 9 8 0 12 -4 9 -9z
m128 -20 c-7 -7 -12 -8 -12 -2 0 14 12 26 19 19 2 -3 -1 -11 -7 -17z m-158 -6
c2 -4 -4 -8 -14 -8 -10 0 -16 4 -14 8 3 4 9 8 14 8 5 0 11 -4 14 -8z m93 -14
c2 -16 0 -19 -6 -9 -6 9 -11 10 -15 2 -4 -6 -5 -14 -3 -18 3 -5 -1 -14 -9 -21
-12 -11 -13 -9 -10 10 3 13 5 24 5 26 1 1 1 5 0 8 -1 7 22 24 31 24 3 0 7 -10
7 -22z m1864 -19 c-12 -19 -21 -30 -21 -26 0 12 33 67 38 63 1 -2 -6 -19 -17
-37z m-2061 21 c0 5 5 10 11 10 8 0 8 -5 -1 -15 -7 -8 -9 -22 -6 -31 5 -14 4
-15 -9 -4 -8 7 -12 16 -9 21 3 5 -2 9 -10 9 -9 0 -16 -5 -16 -12 0 -6 -2 -9
-5 -6 -3 3 -3 12 1 21 5 13 10 14 25 6 13 -6 19 -6 19 1z m121 -13 c-10 -9
-11 -8 -5 6 3 10 9 15 12 12 3 -3 0 -11 -7 -18z m106 5 c1 -9 3 -23 5 -31 2
-7 -3 -15 -10 -16 -7 -2 -8 -1 -3 1 6 3 7 14 1 29 -5 12 -6 26 -3 29 9 8 9 8
10 -12z m718 9 c3 -5 2 -12 -3 -15 -5 -3 -9 1 -9 9 0 17 3 19 12 6z m-890 -31
c-3 -4 1 -10 7 -13 10 -4 10 -7 0 -18 -7 -8 -13 -9 -12 -4 2 6 1 12 0 15 -7
19 -7 39 1 34 5 -3 7 -9 4 -14z m212 -2 c-3 -8 -6 -5 -6 6 -1 11 2 17 5 13 3
-3 4 -12 1 -19z m647 14 c2 -4 0 -14 -6 -22 -8 -12 -9 -12 -5 2 3 9 1 19 -6
22 -9 3 -9 5 0 5 6 1 14 -3 17 -7z m-723 -35 c-10 -9 -11 -8 -5 6 3 10 9 15
12 12 3 -3 0 -11 -7 -18z m693 -6 c-2 -3 -12 3 -22 13 -16 17 -16 18 5 5 12
-7 20 -15 17 -18z m-755 -8 c2 -2 -3 -3 -11 -3 -9 0 -19 7 -22 16 -6 15 -4 15
11 3 10 -7 20 -15 22 -16z m831 -24 c-10 -23 -10 -22 -5 5 5 23 4 27 -7 19
-23 -18 -47 -23 -42 -9 3 8 13 13 22 12 10 0 16 5 14 14 -3 13 -1 13 13 -1 12
-12 13 -21 5 -40z m-988 22 c-4 -11 -7 -11 -10 -3 -3 10 -7 10 -18 1 -12 -10
-13 -9 -8 4 3 9 14 15 24 14 11 -1 16 -6 12 -16z m61 4 c-3 -9 -8 -14 -10 -11
-3 3 -2 9 2 15 9 16 15 13 8 -4z m220 -5 c-3 -11 -9 -20 -15 -20 -5 0 -4 9 2
20 6 11 12 20 14 20 2 0 2 -9 -1 -20z m3304 14 c-3 -3 -12 -4 -19 -1 -8 3 -5
6 6 6 11 1 17 -2 13 -5z m-3649 -29 c-6 -14 -15 -25 -19 -25 -4 0 -2 11 4 25
7 14 15 25 19 25 4 0 2 -11 -4 -25z m2115 -6 c-10 -17 -24 -36 -32 -42 -8 -7
-2 7 14 31 32 49 45 57 18 11z m-1146 15 c-3 -3 -12 -4 -19 -1 -8 3 -5 6 6 6
11 1 17 -2 13 -5z m2306 -1 c-7 -2 -19 -2 -25 0 -7 3 -2 5 12 5 14 0 19 -2 13
-5z m-3031 -18 c2 3 5 -2 5 -10 0 -19 0 -19 -23 7 -12 14 -13 18 -3 10 9 -6
18 -10 21 -7z m731 -12 c-3 -6 -11 -9 -19 -6 -20 7 -17 19 5 19 11 0 17 -6 14
-13z m2204 11 c-3 -3 -12 -4 -19 -1 -8 3 -5 6 6 6 11 1 17 -2 13 -5z m-2843
-19 c-4 -8 -11 -12 -16 -9 -6 4 -5 10 3 15 19 12 19 11 13 -6z m590 -3 c3 -5
-1 -9 -9 -9 -8 0 -12 4 -9 9 3 4 7 8 9 8 2 0 6 -4 9 -8z m2161 -2 c-11 -5 -27
-9 -35 -9 -9 0 -8 4 5 9 11 5 27 9 35 9 9 0 8 -4 -5 -9z m-2788 -22 c-3 -8 -6
-5 -6 6 -1 11 2 17 5 13 3 -3 4 -12 1 -19z m1390 -10 c-3 -7 -5 -2 -5 12 0 14
2 19 5 13 2 -7 2 -19 0 -25z m-1440 16 c-3 -3 -12 -4 -19 -1 -8 3 -5 6 6 6 11
1 17 -2 13 -5z m738 -4 c3 -5 1 -10 -4 -10 -6 0 -11 5 -11 10 0 6 2 10 4 10 3
0 8 -4 11 -10z m45 -16 c0 -8 -4 -14 -10 -14 -5 0 -6 -8 -3 -17 6 -17 6 -17
-10 -1 -18 18 -22 29 -9 27 19 -3 23 2 12 16 -11 13 -10 14 4 9 9 -3 16 -12
16 -20z m2761 9 c13 -16 12 -17 -3 -4 -10 7 -18 15 -18 17 0 8 8 3 21 -13z
m-3576 -3 c3 -5 1 -10 -4 -10 -6 0 -11 5 -11 10 0 6 2 10 4 10 3 0 8 -4 11
-10z m3162 4 c-3 -3 -12 -4 -19 -1 -8 3 -5 6 6 6 11 1 17 -2 13 -5z m210 0
c-3 -3 -12 -4 -19 -1 -8 3 -5 6 6 6 11 1 17 -2 13 -5z m-3330 -10 c-3 -3 -12
-4 -19 -1 -8 3 -5 6 6 6 11 1 17 -2 13 -5z m47 -20 c3 -8 -4 -18 -15 -25 -12
-6 -18 -17 -15 -25 3 -8 1 -14 -4 -14 -6 0 -10 5 -10 11 0 8 -5 7 -15 -1 -9
-7 -18 -10 -22 -7 -3 4 6 12 20 18 15 7 24 16 21 21 -3 4 -10 5 -16 2 -6 -4
-8 -2 -5 3 4 6 19 8 34 5 l28 -5 -19 22 c-16 17 -17 21 -4 16 9 -4 19 -13 22
-21z m1766 23 c0 -2 -10 -12 -22 -23 l-23 -19 19 23 c18 21 26 27 26 19z
m1237 -3 c-3 -3 -12 -4 -19 -1 -8 3 -5 6 6 6 11 1 17 -2 13 -5z m-3136 -35
c-9 -22 -10 -22 -10 -3 -1 11 2 24 6 27 12 12 14 0 4 -24z m69 17 c0 -3 -4 -8
-10 -11 -5 -3 -10 -1 -10 4 0 6 5 11 10 11 6 0 10 -2 10 -4z m690 0 c0 -2 -7
-6 -15 -10 -8 -3 -15 -1 -15 4 0 6 7 10 15 10 8 0 15 -2 15 -4z m1960 -6 c-8
-5 -19 -10 -25 -10 -5 0 -3 5 5 10 8 5 20 10 25 10 6 0 3 -5 -5 -10z m791 -7
c13 -17 13 -17 -6 -3 -11 8 -22 16 -24 17 -2 2 0 3 6 3 6 0 17 -8 24 -17z
m-2732 -22 c-13 -11 -26 -18 -28 -15 -2 2 7 12 20 23 13 11 26 18 28 15 2 -2
-7 -12 -20 -23z m728 -3 c-3 -7 -5 -2 -5 12 0 14 2 19 5 13 2 -7 2 -19 0 -25z
m2147 16 c3 -8 2 -12 -4 -9 -6 3 -10 10 -10 16 0 14 7 11 14 -7z m-3672 -35
c1 -23 12 -43 33 -63 l30 -28 -32 22 c-18 11 -37 18 -43 15 -6 -4 -7 2 -1 17
4 13 5 32 1 43 -4 11 -5 24 -3 28 8 13 12 3 15 -34z m63 31 c3 -5 2 -10 -4
-10 -5 0 -13 5 -16 10 -3 6 -2 10 4 10 5 0 13 -4 16 -10z m659 -2 c-3 -4 -9
-8 -15 -8 -5 0 -9 4 -9 8 0 5 7 9 15 9 8 0 12 -4 9 -9z m112 -24 c2 -23 1 -24
-11 -7 -10 13 -10 20 -2 25 7 4 12 8 12 8 0 0 1 -11 1 -26z m1044 23 c0 -2
-17 -19 -37 -38 l-38 -34 34 38 c33 34 41 42 41 34z m-1017 -22 c-3 -9 -8 -14
-10 -11 -3 3 -2 9 2 15 9 16 15 13 8 -4z m1742 -5 c-3 -5 -12 -10 -18 -10 -7
0 -6 4 3 10 19 12 23 12 15 0z m976 -7 c13 -16 12 -17 -3 -4 -10 7 -18 15 -18
17 0 8 8 3 21 -13z m-794 1 c-3 -3 -12 -4 -19 -1 -8 3 -5 6 6 6 11 1 17 -2 13
-5z m-1270 -36 c-3 -7 -5 -2 -5 12 0 14 2 19 5 13 2 -7 2 -19 0 -25z m1230 26
c-3 -3 -12 -4 -19 -1 -8 3 -5 6 6 6 11 1 17 -2 13 -5z m-2607 -24 c0 -5 -5
-12 -12 -16 -7 -4 -8 -3 -4 4 4 7 2 12 -3 12 -6 0 -11 4 -11 10 0 5 7 7 15 4
8 -4 15 -10 15 -14z m526 4 c-4 -12 -2 -15 9 -10 10 4 14 -1 12 -17 -1 -12
-11 -25 -22 -28 -11 -3 -19 -11 -17 -18 1 -7 -2 -10 -8 -6 -5 3 -10 0 -10 -7
0 -8 -5 -6 -11 5 -6 10 -8 24 -5 32 3 8 0 16 -7 18 -15 5 9 37 27 37 6 0 3 -7
-6 -14 -17 -12 -17 -14 1 -30 16 -15 19 -15 31 -1 8 10 9 15 1 15 -6 0 -11 9
-11 20 0 11 5 20 11 20 6 0 8 -7 5 -16z m-566 -20 c0 -3 -5 -2 -11 2 -6 3 -15
0 -20 -7 -6 -10 -8 -8 -6 8 1 17 5 20 19 12 10 -5 18 -12 18 -15z m690 3 c0
-7 -4 -6 -10 3 -8 12 -10 12 -10 1 0 -8 -3 -12 -6 -8 -9 9 6 28 17 22 5 -4 9
-12 9 -18z m-34 -43 c-6 -6 -12 -8 -14 -3 -5 14 -22 11 -18 -3 1 -7 1 -10 -1
-6 -2 4 -12 4 -21 0 -15 -5 -15 -4 1 12 10 10 24 15 32 12 17 -6 19 2 5 24 -5
8 -10 10 -10 4 0 -6 -7 -11 -16 -11 -14 0 -14 2 2 14 16 12 21 11 35 -8 13
-17 14 -25 5 -35z m1044 42 c0 -2 -8 -10 -17 -17 -16 -13 -17 -12 -4 4 13 16
21 21 21 13z m1897 -18 c-3 -8 -6 -5 -6 6 -1 11 2 17 5 13 3 -3 4 -12 1 -19z
m-2190 -10 c-3 -8 -6 -5 -6 6 -1 11 2 17 5 13 3 -3 4 -12 1 -19z m963 18 c0
-2 -8 -10 -17 -17 -16 -13 -17 -12 -4 4 13 16 21 21 21 13z m110 -6 c-8 -5
-19 -10 -25 -10 -5 0 -3 5 5 10 8 5 20 10 25 10 6 0 3 -5 -5 -10z m-3242 -27
c127 -94 94 -365 -65 -530 -92 -96 -187 -133 -290 -113 -68 12 -175 59 -166
73 4 6 1 7 -6 3 -16 -10 -151 79 -151 100 0 8 20 36 44 62 60 65 112 174 146
310 l11 42 52 -5 c29 -4 56 -11 62 -16 13 -13 31 -11 47 4 91 88 245 123 316
70z m745 12 c-3 -9 -8 -14 -10 -11 -3 3 -2 9 2 15 9 16 15 13 8 -4z m47 8 c0
-5 -5 -15 -11 -23 -9 -13 -10 -13 -6 2 3 9 1 19 -6 22 -7 2 -4 5 6 5 9 1 17
-2 17 -6z m680 -18 c0 -8 -2 -15 -4 -15 -2 0 -6 7 -10 15 -3 8 -1 15 4 15 6 0
10 -7 10 -15z m946 -4 c-4 -5 -30 -28 -59 -51 l-52 -42 55 51 c55 51 66 59 56
42z m-1076 -17 c0 -8 -4 -12 -10 -9 -5 3 -10 10 -10 16 0 5 5 9 10 9 6 0 10
-7 10 -16z m105 6 c3 -6 -1 -7 -9 -4 -18 7 -21 14 -7 14 6 0 13 -4 16 -10z
m-685 -7 c0 -5 -11 -9 -25 -9 -14 -1 -22 2 -19 7 6 11 44 12 44 2z m3507 -50
c-3 -10 -5 -2 -5 17 0 19 2 27 5 18 2 -10 2 -26 0 -35z m-3110 30 c-9 -3 -15
-9 -11 -14 3 -5 10 -6 16 -3 7 4 8 2 4 -4 -11 -18 -49 -15 -43 2 3 8 1 17 -6
19 -7 2 4 4 23 4 19 0 27 -2 17 -4z m248 -11 c-3 -3 -11 0 -18 7 -9 10 -8 11
6 5 10 -3 15 -9 12 -12z m-704 -5 c-6 -8 -8 -17 -4 -21 4 -4 0 -4 -9 -1 -14 5
-15 10 -5 21 16 17 33 18 18 1z m26 -9 c-3 -12 -2 -29 4 -39 6 -12 5 -20 -3
-25 -7 -4 -10 -4 -6 1 4 4 3 14 -3 21 -9 11 -3 64 8 64 3 0 3 -10 0 -22z m40
-10 c-3 -7 -5 -2 -5 12 0 14 2 19 5 13 2 -7 2 -19 0 -25z m569 17 c-16 -12
-17 -17 -6 -30 7 -8 10 -18 7 -22 -4 -3 -10 2 -14 12 -6 18 -7 18 -13 0 -4
-11 -9 -14 -13 -8 -7 11 35 63 50 63 4 0 -1 -7 -11 -15z m3021 -22 c-3 -10 -5
-4 -5 12 0 17 2 24 5 18 2 -7 2 -21 0 -30z m-3728 6 c-16 -10 -23 -4 -14 10 3
6 11 8 17 5 6 -4 5 -9 -3 -15z m805 6 c3 -8 1 -15 -4 -15 -6 0 -10 7 -10 15 0
8 2 15 4 15 2 0 6 -7 10 -15z m699 -30 c-8 -25 -17 -45 -20 -45 -4 0 2 25 18
68 16 42 18 22 2 -23z m-1048 25 c-3 -5 -2 -10 4 -10 5 0 12 6 15 13 4 6 4 1
2 -12 -3 -15 1 -29 10 -36 12 -9 10 -11 -13 -12 -15 -1 -22 1 -16 4 10 3 10
10 2 25 -8 15 -14 17 -22 9 -6 -6 -16 -11 -21 -11 -6 0 0 9 14 20 28 22 34 24
25 10z m142 -12 c-3 -8 -6 -5 -6 6 -1 11 2 17 5 13 3 -3 4 -12 1 -19z m-211 0
c4 -6 3 -8 -4 -4 -6 3 -18 -1 -26 -10 -9 -8 -16 -11 -16 -5 0 5 8 15 18 20 21
13 20 13 28 -1z m358 1 c-3 -6 0 -15 7 -20 9 -6 10 -9 2 -9 -15 0 -26 17 -18
30 3 6 8 10 11 10 3 0 2 -5 -2 -11z m39 -3 c4 -10 1 -13 -8 -9 -8 3 -12 9 -9
14 7 12 11 11 17 -5z m-818 -5 c3 -5 2 -12 -3 -15 -5 -3 -9 1 -9 9 0 17 3 19
12 6z m548 -6 c-3 -9 -8 -14 -10 -11 -3 3 -2 9 2 15 9 16 15 13 8 -4z m-483
-25 c-21 -17 -23 -21 -10 -30 11 -8 8 -9 -14 -4 -25 6 -28 4 -23 -10 4 -9 2
-16 -3 -16 -16 0 -11 30 5 36 8 4 15 13 15 21 0 8 4 12 8 9 4 -2 14 -1 22 5
26 16 26 9 0 -11z m285 10 c-3 -5 -14 -10 -23 -10 -15 0 -15 2 -2 10 20 13 33
13 25 0z m78 -40 c-3 -3 -9 4 -15 14 -8 15 -12 16 -19 5 -4 -7 -11 -10 -15 -6
-4 4 1 13 11 21 17 12 21 11 30 -8 7 -11 10 -23 8 -26z m204 31 c0 -11 -5 -17
-9 -15 -5 3 -6 9 -3 14 3 4 -1 11 -7 13 -8 4 -7 6 4 6 11 1 16 -6 15 -18z
m1063 15 c0 -2 -8 -10 -17 -17 -16 -13 -17 -12 -4 4 13 16 21 21 21 13z
m-1245 -16 c-3 -5 1 -10 9 -10 20 0 24 -11 15 -40 -8 -23 -8 -23 -5 5 4 26 3
28 -9 12 -12 -16 -13 -16 -17 8 -3 13 -3 27 0 30 9 9 14 6 7 -5z m-164 -14
c-19 -11 -21 -14 -7 -19 9 -4 16 -3 16 2 0 4 7 8 16 8 15 0 15 -1 1 -12 -10
-7 -13 -15 -7 -21 5 -5 -1 -10 -17 -11 -19 -1 -22 1 -12 8 11 7 11 9 -3 9 -10
0 -18 5 -18 10 0 6 -5 10 -11 10 -5 0 -8 -4 -5 -8 2 -4 1 -14 -4 -22 -5 -9 -4
-20 3 -30 6 -8 1 -6 -11 4 -19 17 -20 21 -8 28 8 5 13 14 10 22 -3 8 7 17 28
23 46 15 57 15 29 -1z m416 8 c-3 -3 -12 -4 -19 -1 -8 3 -5 6 6 6 11 1 17 -2
13 -5z m97 -6 c-3 -5 -13 -8 -22 -6 -10 2 -22 -7 -29 -22 l-12 -25 6 29 c5 22
3 27 -7 21 -7 -5 -11 -4 -7 1 3 5 21 9 41 10 19 0 33 -3 30 -8z m-804 -8 c0
-5 -7 -7 -15 -4 -20 8 -19 -6 3 -23 15 -13 15 -13 -5 -3 -23 11 -28 21 -16 33
10 10 33 8 33 -3z m190 -4 c-1 -5 4 -13 12 -17 12 -8 5 -11 -18 -8 -4 0 -10
-5 -14 -11 -6 -9 -10 -7 -14 7 -5 15 -14 19 -39 16 l-32 -3 30 10 c23 8 32 7
41 -5 10 -13 13 -13 23 -1 8 10 9 16 1 19 -7 4 -7 5 1 4 6 -2 10 -6 9 -11z
m1461 0 c-7 -8 -41 -33 -76 -56 -60 -39 -85 -44 -85 -17 0 7 4 6 10 -3 7 -12
22 -5 82 37 81 57 86 59 69 39z m-1310 -19 c-10 -9 -11 -8 -5 6 3 10 9 15 12
12 3 -3 0 -11 -7 -18z m35 -3 c-4 -9 0 -21 9 -28 11 -8 12 -15 4 -26 -9 -13
-10 -12 -5 3 3 9 1 17 -4 17 -6 0 -10 -12 -10 -26 0 -15 -4 -23 -11 -19 -6 4
-7 14 -4 24 4 9 8 25 10 36 4 33 5 35 11 35 3 0 3 -7 0 -16z m37 3 c3 -8 0
-14 -7 -14 -7 0 -13 6 -13 14 0 7 4 13 8 13 4 0 9 -6 12 -13z m-463 -21 c0 -8
-4 -18 -10 -21 -6 -4 -7 1 -3 11 5 13 3 15 -7 9 -9 -5 -11 -4 -6 3 10 17 26
15 26 -2z m30 -6 c0 -5 -5 -10 -11 -10 -5 0 -7 5 -4 10 3 6 8 10 11 10 2 0 4
-4 4 -10z m727 -4 c-3 -8 1 -17 9 -20 8 -3 13 -13 13 -23 -1 -17 -2 -17 -6 0
-2 9 -9 17 -15 17 -5 0 -7 -7 -4 -16 3 -8 2 -12 -3 -9 -8 4 -9 48 -2 63 5 10
12 -1 8 -12z m-613 -12 c3 -8 2 -12 -4 -9 -6 3 -10 10 -10 16 0 14 7 11 14 -7z
m41 6 c3 -6 -1 -7 -9 -4 -18 7 -21 14 -7 14 6 0 13 -4 16 -10z m-65 -4 c0 -2
-7 -7 -16 -10 -8 -3 -12 -2 -9 4 6 10 25 14 25 6z m280 0 c0 -2 -7 -7 -16 -10
-8 -3 -12 -2 -9 4 6 10 25 14 25 6z m-362 -20 c-23 -17 -23 -35 -1 -43 14 -5
13 -8 -6 -15 -25 -9 -41 -3 -41 14 0 7 6 6 15 -2 9 -8 15 -9 15 -2 0 6 -9 17
-21 25 -13 9 -16 17 -10 22 6 3 11 1 11 -5 0 -7 9 -5 22 4 27 19 40 21 16 2z
m226 -9 c-1 -9 4 -17 12 -17 16 0 19 -26 4 -35 -6 -3 -7 1 -4 9 8 22 -29 21
-51 0 -9 -9 -18 -14 -21 -11 -3 3 8 15 25 28 32 24 42 45 16 36 -8 -4 -17 -2
-19 2 -3 5 5 8 17 7 14 -1 22 -7 21 -19z m236 1 c0 -6 -3 -8 -7 -5 -3 4 -13 1
-21 -6 -13 -10 -14 -9 -3 11 12 22 31 22 31 0z m-289 -5 c3 1 1 -2 -3 -8 -5
-5 -15 -2 -26 9 -16 18 -16 18 4 8 12 -6 23 -10 25 -9z m120 -3 c6 0 7 5 3 12
-4 7 -3 8 4 4 14 -8 4 -36 -12 -36 -6 0 -12 10 -13 23 0 12 1 16 4 10 3 -7 9
-13 14 -13z m379 10 c-8 -6 -24 -16 -35 -22 l-20 -11 20 21 c11 11 27 21 35
21 13 1 13 0 0 -9z m-560 -10 c13 -9 13 -10 0 -9 -8 0 -24 4 -35 9 l-20 9 20
0 c11 0 27 -4 35 -9z m-175 -10 c3 -5 1 -10 -4 -10 -6 0 -11 5 -11 10 0 6 2
10 4 10 3 0 8 -4 11 -10z m3678 -5 c-3 -9 -8 -14 -10 -11 -3 3 -2 9 2 15 9 16
15 13 8 -4z m-3278 -5 c3 -5 2 -10 -4 -10 -5 0 -13 5 -16 10 -3 6 -2 10 4 10
5 0 13 -4 16 -10z m72 -5 c0 -8 -4 -15 -9 -15 -4 0 -8 7 -8 15 0 8 4 15 8 15
5 0 9 -7 9 -15z m-354 -12 c-3 -7 -9 -10 -14 -7 -14 8 -11 21 5 21 8 0 12 -6
9 -14z m81 -5 c-3 -5 -12 -4 -20 3 -19 16 -18 18 6 12 11 -3 17 -9 14 -15z
m-47 -10 c2 -18 0 -20 -7 -8 -12 18 -13 30 -2 30 4 0 9 -10 9 -22z m129 -8
c-1 -36 -12 -39 -18 -5 -3 13 -1 22 3 19 5 -3 9 0 9 5 0 6 2 11 4 11 2 0 3
-13 2 -30z m-279 14 c-3 -3 -12 -4 -19 -1 -8 3 -5 6 6 6 11 1 17 -2 13 -5z
m327 -20 c3 -8 2 -12 -4 -9 -6 3 -10 10 -10 16 0 14 7 11 14 -7z m-328 -15
c19 -22 19 -22 -3 -8 -13 8 -23 17 -23 21 0 12 6 9 26 -13z m244 11 c0 -5 -4
-10 -10 -10 -5 0 -10 5 -10 10 0 6 5 10 10 10 6 0 10 -4 10 -10z m-60 -10 c0
-5 -8 -10 -17 -10 -15 0 -16 2 -3 10 19 12 20 12 20 0z m-47 -15 c-3 -9 -8
-14 -10 -11 -3 3 -2 9 2 15 9 16 15 13 8 -4z m111 -22 c-3 -12 -13 -24 -22
-28 -14 -5 -14 -4 -5 6 9 9 10 16 1 26 -8 11 -7 12 6 7 10 -4 16 -1 16 7 0 7
2 10 5 8 2 -3 2 -14 -1 -26z m-199 6 c11 -16 1 -19 -13 -3 -7 8 -8 14 -3 14 5
0 13 -5 16 -11z m105 -14 c-5 -13 -5 -27 -1 -30 5 -2 12 7 15 20 4 16 11 23
18 19 9 -6 9 -9 0 -12 -7 -2 -12 -9 -12 -16 0 -7 -9 -21 -20 -31 -11 -10 -20
-13 -20 -7 0 6 6 13 13 15 6 3 3 6 -7 6 -11 1 -16 4 -13 8 4 3 1 13 -6 22 -10
14 -10 14 4 3 14 -10 17 -9 22 8 3 11 8 20 11 20 3 0 1 -11 -4 -25z m3580 5
c-6 -11 -13 -20 -16 -20 -2 0 0 9 6 20 6 11 13 20 16 20 2 0 0 -9 -6 -20z
m-3702 -12 c-2 -7 2 -12 7 -11 6 1 12 -12 13 -28 1 -16 -2 -29 -7 -29 -6 0 -8
9 -6 20 2 13 -4 24 -17 31 -17 9 -18 13 -7 20 18 11 19 11 17 -3z m62 -23 c0
5 5 4 12 -3 8 -8 8 -15 0 -25 -7 -8 -9 -17 -5 -21 4 -4 0 -4 -10 0 -19 7 -24
26 -6 22 6 -2 13 2 16 9 2 7 -3 10 -14 7 -14 -4 -18 1 -20 23 l-1 28 14 -25
c7 -14 13 -21 14 -15z m-95 5 c10 -11 16 -20 13 -20 -3 0 -13 9 -23 20 -10 11
-16 20 -13 20 3 0 13 -9 23 -20z m3705 -19 c-5 -11 -15 -23 -21 -27 -6 -3 -3
5 6 20 20 30 30 35 15 7z m-3730 -1 c0 -5 -5 -10 -11 -10 -5 0 -7 5 -4 10 3 6
8 10 11 10 2 0 4 -4 4 -10z m3610 6 c0 -2 -8 -10 -17 -17 -16 -13 -17 -12 -4
4 13 16 21 21 21 13z m-6814 -31 c38 -58 -36 -125 -88 -78 -22 20 -24 66 -2
87 24 25 71 20 90 -9z m5932 9 c43 -30 19 -114 -32 -114 -86 0 -87 123 -1 129
6 1 21 -6 33 -15z m-2698 -18 c-7 -7 -13 -7 -20 0 -6 6 -3 10 10 10 13 0 16
-4 10 -10z m3550 0 c0 -2 -8 -10 -17 -17 -16 -13 -17 -12 -4 4 13 16 21 21 21
13z m-3499 -29 c-10 -9 -11 -8 -5 6 3 10 9 15 12 12 3 -3 0 -11 -7 -18z m3609
-1 c0 -2 -8 -10 -17 -17 -16 -13 -17 -12 -4 4 13 16 21 21 21 13z m-6090 -9
c0 -1 -26 -27 -57 -57 l-58 -55 55 58 c50 53 60 62 60 54z m5940 -11 c0 -2 -8
-10 -17 -17 -16 -13 -17 -12 -4 4 13 16 21 21 21 13z m120 -20 c0 -2 -8 -10
-17 -17 -16 -13 -17 -12 -4 4 13 16 21 21 21 13z m-180 -50 c0 -2 -8 -10 -17
-17 -16 -13 -17 -12 -4 4 13 16 21 21 21 13z m101 -49 c-10 -9 -11 -8 -5 6 3
10 9 15 12 12 3 -3 0 -11 -7 -18z m-4075 -19 c5 -7 3 -8 -5 -3 -7 4 -23 -3
-39 -16 l-27 -24 24 28 c27 30 36 33 47 15z m3924 9 c0 -2 -15 -16 -32 -33
l-33 -29 29 33 c28 30 36 37 36 29z m-3890 -67 c6 -11 8 -20 6 -20 -3 0 -10 9
-16 20 -6 11 -8 20 -6 20 3 0 10 -9 16 -20z m1609 17 c-2 -1 -13 -9 -24 -17
-19 -14 -19 -14 -6 3 7 9 18 17 24 17 6 0 8 -1 6 -3z m2381 0 c0 -2 -15 -16
-32 -33 l-33 -29 29 33 c28 30 36 37 36 29z m-2301 -41 c-3 -3 -11 5 -18 17
-13 21 -12 21 5 5 10 -10 16 -20 13 -22z m2131 21 c0 -1 -39 -41 -87 -87 l-88
-85 85 88 c79 81 90 92 90 84z m-2253 -54 c-3 -10 -5 -4 -5 12 0 17 2 24 5 18
2 -7 2 -21 0 -30z m108 -33 c-10 -11 -25 -20 -34 -19 -10 0 -8 4 7 9 12 5 25
17 28 25 4 9 9 13 12 10 3 -2 -3 -14 -13 -25z m-3430 0 c10 -11 16 -20 13 -20
-3 0 -13 9 -23 20 -10 11 -16 20 -13 20 3 0 13 -9 23 -20z m5655 16 c0 -2 -8
-10 -17 -17 -16 -13 -17 -12 -4 4 13 16 21 21 21 13z m-1372 -90 c23 -119 77
-176 183 -197 32 -6 59 -15 59 -18 0 -4 -36 -22 -80 -40 -126 -51 -138 -69
-168 -241 -4 -25 -12 -44 -17 -43 -6 1 -17 39 -26 85 -24 130 -44 154 -170
197 -53 19 -75 30 -59 31 22 1 23 2 5 9 -14 6 -8 9 28 14 57 8 92 25 134 67
30 29 43 59 73 169 14 53 24 45 38 -33z m1292 11 c0 -2 -15 -16 -32 -33 l-33
-29 29 33 c28 30 36 37 36 29z m-180 -31 c0 -2 -8 -10 -17 -17 -16 -13 -17
-12 -4 4 13 16 21 21 21 13z m-40 -30 c0 -2 -8 -10 -17 -17 -16 -13 -17 -12
-4 4 13 16 21 21 21 13z m140 -19 c0 -2 -19 -21 -42 -42 l-43 -40 40 43 c36
39 45 47 45 39z m-180 -20 c0 -2 -10 -12 -22 -23 l-23 -19 19 23 c18 21 26 27
26 19z m-5813 -39 c-3 -8 -6 -5 -6 6 -1 11 2 17 5 13 3 -3 4 -12 1 -19z m5753
-11 c0 -2 -12 -14 -27 -28 l-28 -24 24 28 c23 25 31 32 31 24z m130 -30 c0 -2
-19 -21 -42 -42 l-43 -40 40 43 c36 39 45 47 45 39z m-210 -40 c0 -2 -12 -14
-27 -28 l-28 -24 24 28 c23 25 31 32 31 24z m-2421 -22 c49 -25 61 -104 21
-140 -10 -9 -34 -18 -53 -22 -31 -5 -40 -1 -67 25 -46 46 -39 106 18 136 34
19 46 19 81 1z m2346 -45 c-10 -11 -22 -20 -28 -20 -5 0 1 9 14 20 31 25 37
25 14 0z m-45 -34 c0 -2 -8 -10 -17 -17 -16 -13 -17 -12 -4 4 13 16 21 21 21
13z m160 -10 c0 -2 -19 -19 -42 -36 l-43 -32 40 36 c40 36 45 39 45 32z m917
-18 c39 -37 30 -99 -19 -124 -24 -12 -36 -13 -64 -4 -56 19 -72 75 -33 124 27
34 82 36 116 4z m-1117 -1 c0 -2 -10 -12 -22 -23 l-23 -19 19 23 c18 21 26 27
26 19z m-3133 -74 c-2 -16 -4 -5 -4 22 0 28 2 40 4 28 2 -13 2 -35 0 -50z
m3083 33 c0 -2 -8 -10 -17 -17 -16 -13 -17 -12 -4 4 13 16 21 21 21 13z m150
-19 c0 -2 -19 -18 -42 -36 l-43 -32 39 35 c37 34 46 40 46 33z m-200 -21 c0
-2 -8 -10 -17 -17 -16 -13 -17 -12 -4 4 13 16 21 21 21 13z m-3033 -58 c-3 -7
-5 -2 -5 12 0 14 2 19 5 13 2 -7 2 -19 0 -25z m2978 12 c-3 -5 -20 -19 -38
-30 -32 -22 -32 -22 3 9 37 32 45 37 35 21z m125 -34 c0 -2 -17 -16 -37 -31
l-38 -26 35 30 c34 31 40 35 40 27z m-200 -20 c0 -2 -8 -10 -17 -17 -16 -13
-17 -12 -4 4 13 16 21 21 21 13z m-5775 -28 c45 -20 47 -83 3 -107 -30 -17
-78 -7 -86 19 -4 11 -1 10 12 -3 37 -37 100 -12 94 38 -2 23 -12 34 -38 47
-39 20 -26 25 15 6z m-55 -2 c0 -2 -8 -10 -17 -17 -16 -13 -17 -12 -4 4 13 16
21 21 21 13z m5790 0 c0 -2 -8 -10 -17 -17 -16 -13 -17 -12 -4 4 13 16 21 21
21 13z m160 -10 c0 -2 -8 -10 -17 -17 -16 -13 -17 -12 -4 4 13 16 21 21 21 13z
m-5983 -48 c-3 -8 -6 -5 -6 6 -1 11 2 17 5 13 3 -3 4 -12 1 -19z m5748 2 c-3
-5 -20 -19 -38 -30 -32 -22 -32 -22 3 9 37 32 45 37 35 21z m-1257 -82 c17
-17 15 -68 -5 -90 -21 -24 -54 -23 -81 2 -26 25 -28 57 -5 82 18 20 73 24 91
6z m1152 3 c0 -5 -7 -12 -16 -15 -14 -5 -15 -4 -4 9 14 17 20 19 20 6z m150
-15 c0 -3 -15 -14 -32 -26 l-33 -22 30 26 c31 27 35 29 35 22z m-230 -40 c0
-2 -8 -10 -17 -17 -16 -13 -17 -12 -4 4 13 16 21 21 21 13z m-100 -70 c0 -2
-8 -10 -17 -17 -16 -13 -17 -12 -4 4 13 16 21 21 21 13z m1211 -35 c73 -73 -5
-191 -101 -151 -42 17 -65 71 -50 115 23 70 99 88 151 36z m-1261 -115 c0 -2
-12 -11 -27 -20 l-28 -17 24 20 c23 21 31 25 31 17z m-1912 -22 c31 -21 30
-69 -3 -90 -29 -19 -60 -11 -81 21 -13 19 -13 28 -3 47 22 41 49 49 87 22z
m1692 -18 c0 -2 -8 -10 -17 -17 -16 -13 -17 -12 -4 4 13 16 21 21 21 13z
m-2440 -30 c0 -2 -8 -10 -17 -17 -16 -13 -17 -12 -4 4 13 16 21 21 21 13z
m2370 -20 c0 -2 -8 -10 -17 -17 -16 -13 -17 -12 -4 4 13 16 21 21 21 13z m150
-1 c0 -2 -10 -9 -22 -15 -22 -11 -22 -10 -4 4 21 17 26 19 26 11z m-4475 -25
c10 -11 16 -20 13 -20 -3 0 -13 9 -23 20 -10 11 -16 20 -13 20 3 0 13 -9 23
-20z m4285 -5 c0 -2 -10 -9 -22 -15 -22 -11 -22 -10 -4 4 21 17 26 19 26 11z
m-4180 -100 c13 -14 21 -25 18 -25 -2 0 -15 11 -28 25 -13 14 -21 25 -18 25 2
0 15 -11 28 -25z m4190 21 c0 -2 -16 -13 -35 -25 -19 -11 -35 -18 -35 -16 0 5
61 45 68 45 1 0 2 -2 2 -4z m-175 -36 c-9 -10 -15 -26 -11 -35 3 -9 2 -13 -4
-10 -6 3 -10 11 -10 17 0 12 29 48 38 48 3 0 -3 -9 -13 -20z m70 -29 c-6 -5
-21 -11 -35 -15 -21 -5 -20 -3 5 9 35 17 42 18 30 6z m-3870 -109 c-3 -3 -11
0 -18 7 -9 10 -8 11 6 5 10 -3 15 -9 12 -12z m80 -40 c-3 -3 -11 0 -18 7 -9
10 -8 11 6 5 10 -3 15 -9 12 -12z m312 -88 c-3 -3 -12 -4 -19 -1 -8 3 -5 6 6
6 11 1 17 -2 13 -5z m66 -11 c-7 -2 -19 -2 -25 0 -7 3 -2 5 12 5 14 0 19 -2
13 -5z m384 1 c-3 -3 -12 -4 -19 -1 -8 3 -5 6 6 6 11 1 17 -2 13 -5z m-270
-10 c-3 -3 -12 -4 -19 -1 -8 3 -5 6 6 6 11 1 17 -2 13 -5z m50 0 c-3 -3 -12
-4 -19 -1 -8 3 -5 6 6 6 11 1 17 -2 13 -5z m-244 -179 c234 -49 368 -251 384
-580 24 -484 -160 -755 -510 -755 -191 0 -322 82 -407 253 -64 129 -83 242
-77 452 6 195 20 262 77 380 100 207 299 300 533 250z m4891 -15 c119 -45 206
-168 206 -291 0 -44 -3 -51 -26 -59 -14 -6 -61 -10 -105 -10 -66 0 -82 3 -99
20 -11 11 -20 27 -20 35 0 29 -30 75 -60 90 -91 47 -210 -15 -210 -110 0 -66
36 -104 215 -225 94 -63 191 -135 216 -160 63 -63 92 -139 92 -245 0 -139 -46
-234 -145 -299 -80 -52 -153 -69 -267 -63 -124 6 -193 32 -267 99 -89 82 -144
221 -109 275 14 21 22 23 108 23 60 0 99 -5 109 -12 8 -7 21 -35 28 -61 40
-148 267 -155 287 -9 12 92 -14 124 -219 259 -214 142 -263 201 -289 347 -12
74 0 175 28 230 44 86 128 151 233 181 78 21 217 14 294 -15z m-5594 -15 c8
-10 13 -47 12 -108 -1 -124 -5 -127 -158 -127 l-114 0 0 -505 c0 -598 12 -545
-128 -545 -141 0 -127 -57 -127 537 l0 508 -126 5 c-86 3 -131 9 -143 19 -13
11 -16 32 -16 104 0 138 -37 127 410 127 326 0 379 -2 390 -15z m1394 -8 c9
-12 44 -105 80 -207 77 -222 96 -270 106 -270 10 0 14 12 101 260 39 113 78
213 87 223 14 15 31 17 140 15 104 -3 127 -6 135 -20 9 -13 -6 -52 -67 -185
-43 -92 -123 -265 -177 -385 l-99 -216 0 -230 c0 -196 -2 -233 -16 -246 -12
-12 -37 -16 -110 -16 -143 0 -138 -10 -129 259 l7 216 -176 392 c-97 215 -176
395 -176 400 0 27 29 33 152 33 121 0 128 -1 142 -23z m1008 6 c9 -10 21 -45
28 -78 6 -33 43 -206 81 -385 111 -517 97 -467 122 -457 8 3 35 109 76 303 98
467 130 606 142 620 17 21 222 20 239 -1 11 -13 0 -69 -60 -318 -39 -166 -105
-444 -147 -617 -58 -245 -79 -319 -95 -332 -17 -15 -42 -18 -164 -18 -125 0
-146 2 -161 18 -12 12 -69 222 -172 635 -125 504 -151 620 -141 632 10 12 37
15 125 15 94 0 114 -3 127 -17z m1506 5 c14 -14 16 -186 2 -208 -7 -12 -45
-16 -197 -20 l-188 -5 0 -135 0 -135 153 -5 c185 -6 182 -4 182 -127 0 -122
-1 -123 -190 -123 l-150 0 0 -140 0 -140 195 0 195 0 10 -26 c16 -42 12 -176
-6 -202 -15 -22 -16 -22 -319 -22 -303 0 -304 0 -319 22 -14 20 -16 97 -16
635 0 543 2 613 16 627 13 14 56 16 318 16 221 0 305 -3 314 -12z m775 -17
c39 -15 76 -41 112 -76 71 -72 96 -137 103 -272 8 -180 -28 -292 -123 -382
-30 -29 -55 -56 -55 -61 0 -5 44 -107 97 -226 75 -168 94 -220 86 -233 -8 -13
-30 -17 -114 -19 -136 -4 -146 -1 -169 51 -10 23 -48 112 -85 197 -37 85 -76
163 -87 173 -24 20 -81 23 -97 3 -8 -9 -11 -72 -9 -204 2 -147 -1 -193 -11
-206 -11 -13 -33 -16 -107 -16 -148 0 -134 -70 -134 648 0 543 2 610 16 631
l16 23 252 -4 c233 -4 255 -6 309 -27z m1911 13 c21 -21 23 -196 3 -213 -9 -6
-83 -12 -198 -13 l-184 -3 0 -135 0 -135 155 -5 c85 -3 161 -9 168 -13 8 -6
12 -40 12 -113 0 -103 0 -105 -26 -114 -14 -6 -90 -10 -170 -10 l-144 0 0
-124 c0 -68 3 -131 6 -140 5 -14 32 -16 193 -16 132 0 191 -4 199 -12 8 -8 12
-46 12 -107 0 -141 26 -131 -331 -131 -257 0 -300 2 -313 16 -14 14 -16 85
-16 630 0 405 4 622 10 635 10 18 24 19 310 19 258 0 301 -2 314 -16z m-4658
-1625 c3 -6 -4 -21 -17 -33 l-23 -21 18 23 c24 28 17 36 -18 22 -15 -5 -33
-10 -39 -9 -7 0 4 7 23 14 44 17 47 17 56 4z m-136 -39 c-8 -5 -19 -10 -25
-10 -5 0 -3 5 5 10 8 5 20 10 25 10 6 0 3 -5 -5 -10z m-1602 -17 c-11 -3 -18
-17 -21 -41 l-4 -37 -1 43 c-2 38 0 42 21 41 16 -1 17 -3 5 -6z m1607 -43 c-3
-5 -12 -10 -18 -10 -7 0 -6 4 3 10 19 12 23 12 15 0z m-1557 -35 c-3 -3 -9 2
-12 12 -6 14 -5 15 5 6 7 -7 10 -15 7 -18z m37 -35 c10 -11 16 -20 13 -20 -3
0 -13 9 -23 20 -10 11 -16 20 -13 20 3 0 13 -9 23 -20z m1345 -10 c-8 -5 -19
-10 -25 -10 -5 0 -3 5 5 10 8 5 20 10 25 10 6 0 3 -5 -5 -10z m-150 -60 c-8
-5 -19 -10 -25 -10 -5 0 -3 5 5 10 8 5 20 10 25 10 6 0 3 -5 -5 -10z m-323 -6
c-3 -3 -12 -4 -19 -1 -8 3 -5 6 6 6 11 1 17 -2 13 -5z m200 -40 c-3 -3 -12 -4
-19 -1 -8 3 -5 6 6 6 11 1 17 -2 13 -5z m-654 -21 c-7 -2 -21 -2 -30 0 -10 3
-4 5 12 5 17 0 24 -2 18 -5z m50 0 c-7 -2 -19 -2 -25 0 -7 3 -2 5 12 5 14 0
19 -2 13 -5z m464 -19 c-3 -3 -12 -4 -19 -1 -8 3 -5 6 6 6 11 1 17 -2 13 -5z
m-40 -10 c-3 -3 -12 -4 -19 -1 -8 3 -5 6 6 6 11 1 17 -2 13 -5z m-40 -10 c-3
-3 -12 -4 -19 -1 -8 3 -5 6 6 6 11 1 17 -2 13 -5z m-140 -30 c-3 -3 -12 -4
-19 -1 -8 3 -5 6 6 6 11 1 17 -2 13 -5z m-440 -20 c-3 -3 -12 -4 -19 -1 -8 3
-5 6 6 6 11 1 17 -2 13 -5z m276 -1 c-7 -2 -19 -2 -25 0 -7 3 -2 5 12 5 14 0
19 -2 13 -5z"/>
<path d="M3399 7497 c-19 -12 -38 -35 -43 -49 -8 -24 -6 -30 20 -50 16 -12 53
-45 82 -72 l52 -49 30 28 c58 55 44 144 -29 192 -43 29 -69 29 -112 0z"/>
<path d="M2215 7270 c-81 -53 -85 -159 -9 -219 38 -30 51 -26 75 21 12 23 37
66 56 95 40 59 38 74 -9 103 -42 25 -75 25 -113 0z"/>
<path d="M3262 6977 c-45 -48 -16 -127 46 -127 63 0 95 85 49 128 -30 28 -68
28 -95 -1z"/>
<path d="M2690 6888 c-43 -46 -10 -138 50 -138 19 0 36 9 49 26 60 76 -34 182
-99 112z"/>
<path d="M3110 6838 c0 -4 9 -8 20 -8 11 0 20 4 20 8 0 4 -9 8 -20 8 -11 0
-20 -4 -20 -8z"/>
<path d="M3020 6747 c-34 -17 -55 -57 -46 -90 3 -15 24 -39 51 -57 46 -32 54
-47 58 -115 2 -39 1 -40 -33 -43 -23 -2 -55 7 -95 27 -49 24 -61 27 -63 15 -6
-26 25 -61 75 -85 61 -30 141 -29 213 2 60 26 140 109 140 145 0 13 -2 24 -5
24 -3 0 -33 -22 -67 -50 -34 -27 -66 -50 -70 -50 -8 0 -12 14 -22 77 -4 26 1
40 29 73 68 81 34 140 -79 140 -33 0 -72 -6 -86 -13z"/>
<path d="M3421 6604 c0 -11 3 -14 6 -6 3 7 2 16 -1 19 -3 4 -6 -2 -5 -13z"/>
<path d="M3289 6373 c-13 -16 -12 -17 4 -4 16 13 21 21 13 21 -2 0 -10 -8 -17
-17z"/>
<path d="M4973 6249 c-47 -33 -60 -52 -16 -24 15 10 36 18 47 19 12 1 22 9 24
19 5 24 -6 21 -55 -14z"/>
<path d="M4879 6173 c-13 -15 -12 -15 9 -4 23 12 28 21 13 21 -5 0 -15 -7 -22
-17z"/>
<path d="M4810 5689 c0 -5 5 -7 10 -4 6 3 10 8 10 11 0 2 -4 4 -10 4 -5 0 -10
-5 -10 -11z"/>
<path d="M5290 5470 c-9 -6 -10 -10 -3 -10 6 0 15 5 18 10 8 12 4 12 -15 0z"/>
<path d="M5114 5354 c-18 -14 -18 -15 4 -4 12 6 22 13 22 15 0 8 -5 6 -26 -11z"/>
<path d="M4750 5180 c-8 -5 -10 -10 -5 -10 6 0 17 5 25 10 8 5 11 10 5 10 -5
0 -17 -5 -25 -10z"/>
<path d="M3007 5379 c7 -7 15 -10 18 -7 3 3 -2 9 -12 12 -14 6 -15 5 -6 -5z"/>
<path d="M3080 5301 c0 -6 4 -13 10 -16 6 -3 7 1 4 9 -7 18 -14 21 -14 7z"/>
<path d="M2948 4883 c7 -3 16 -2 19 1 4 3 -2 6 -13 5 -11 0 -14 -3 -6 -6z"/>
<path d="M5500 5694 c0 -8 5 -12 10 -9 6 4 8 11 5 16 -9 14 -15 11 -15 -7z"/>
<path d="M4075 5510 c3 -5 8 -10 11 -10 2 0 4 5 4 10 0 6 -5 10 -11 10 -5 0
-7 -4 -4 -10z"/>
<path d="M2715 2924 c-62 -32 -100 -90 -126 -194 -21 -83 -18 -366 4 -450 36
-134 103 -200 205 -200 97 0 152 41 191 144 45 121 52 371 15 521 -21 82 -67
154 -114 177 -44 22 -135 23 -175 2z"/>
<path d="M6557 2923 c-4 -3 -7 -90 -7 -193 0 -230 -2 -225 101 -218 127 8 168
45 189 170 21 123 -19 213 -106 237 -43 12 -167 15 -177 4z"/>
</g>
</svg>
